<svg width="102" height="102" viewBox="0 0 102 102" fill="none" xmlns="http://www.w3.org/2000/svg">
<path fill-rule="evenodd" clip-rule="evenodd" d="M50.9999 0.375C40.9871 0.374258 31.1989 3.34272 22.8732 8.90498C14.5475 14.4672 8.05814 22.3735 4.22586 31.6239C0.393577 40.8743 -0.609543 51.0534 1.34335 60.8739C3.29625 70.6944 8.11744 79.7153 15.1973 86.7957C22.2771 93.8761 31.2975 98.6981 41.1179 100.652C50.9382 102.606 61.1174 101.603 70.3681 97.772C79.6188 93.9405 87.5257 87.4519 93.0887 79.1267C98.6516 70.8014 101.621 61.0135 101.621 51.0007C101.614 37.5768 96.2789 24.7046 86.7872 15.2121C77.2955 5.71951 64.4238 0.383029 50.9999 0.375ZM29.7826 56.2974L40.3913 66.9071C40.9127 67.4306 41.5323 67.8461 42.2146 68.1295C42.897 68.413 43.6286 68.559 44.3675 68.559C45.1063 68.559 45.838 68.413 46.5203 68.1295C47.2026 67.8461 47.8223 67.4306 48.3436 66.9071L72.2171 43.0476C73.2717 41.993 73.8642 40.5626 73.8643 39.0711C73.8643 37.5797 73.2719 36.1493 72.2173 35.0946C71.1627 34.04 69.7324 33.4474 68.2409 33.4474C66.7494 33.4473 65.319 34.0398 64.2644 35.0944L44.3751 54.9852L37.7351 48.3442C36.6805 47.2897 35.2501 46.6972 33.7586 46.6973C32.2672 46.6974 30.8368 47.2899 29.7823 48.3445C28.7277 49.3992 28.1353 50.8296 28.1353 52.3211C28.1354 53.8125 28.7279 55.2429 29.7826 56.2974Z" fill="url(#paint0_linear_750_915)"/>
<defs>
<linearGradient id="paint0_linear_750_915" x1="16.9536" y1="88.4513" x2="85.0461" y2="13.5488" gradientUnits="userSpaceOnUse">
<stop stop-color="#0056E0"/>
<stop offset="0.01" stop-color="#0056E0"/>
<stop offset="1" stop-color="#00E5B8"/>
</linearGradient>
</defs>
</svg>
