<svg width="32" height="30" viewBox="0 0 32 30" fill="none" xmlns="http://www.w3.org/2000/svg">
<path d="M29.34 17.5178L31.9663 5.96222C32.1559 5.12789 31.5217 4.33339 30.6661 4.33339H8.84489L8.33567 1.84394C8.20878 1.22344 7.66278 0.777832 7.02939 0.777832H1.33333C0.596944 0.777832 0 1.37478 0 2.11117V3.00005C0 3.73644 0.596944 4.33339 1.33333 4.33339H5.21572L9.11839 23.4131C8.18472 23.9501 7.55556 24.9568 7.55556 26.1112C7.55556 27.8294 8.94844 29.2223 10.6667 29.2223C12.3849 29.2223 13.7778 27.8294 13.7778 26.1112C13.7778 25.2404 13.4196 24.4537 12.8431 23.8889H24.4902C23.9137 24.4537 23.5556 25.2404 23.5556 26.1112C23.5556 27.8294 24.9484 29.2223 26.6667 29.2223C28.3849 29.2223 29.7778 27.8294 29.7778 26.1112C29.7778 24.8794 29.0618 23.8149 28.0234 23.3109L28.3299 21.9622C28.5195 21.1279 27.8853 20.3334 27.0297 20.3334H12.1176L11.754 18.5556H28.0398C28.6624 18.5556 29.2021 18.1248 29.34 17.5178Z" fill="black"/>
</svg>
