<svg width="22" height="22" viewBox="0 0 22 22" fill="none" xmlns="http://www.w3.org/2000/svg">
<path d="M19.25 21.5H2.75C1.50734 21.5 0.5 20.4927 0.5 19.25V2.75C0.5 1.50734 1.50734 0.5 2.75 0.5H19.25C20.4927 0.5 21.5 1.50734 21.5 2.75V19.25C21.5 20.4927 20.4927 21.5 19.25 21.5ZM9.65534 16.9035L18.2803 8.27848C18.5732 7.98561 18.5732 7.51072 18.2803 7.21784L17.2197 6.1572C16.9268 5.86433 16.4519 5.86428 16.159 6.1572L9.125 13.1912L5.84098 9.90716C5.54811 9.61428 5.07322 9.61428 4.7803 9.90716L3.71966 10.9678C3.42678 11.2607 3.42678 11.7356 3.71966 12.0284L8.59466 16.9034C8.88758 17.1964 9.36242 17.1964 9.65534 16.9035Z" fill="black"/>
</svg>
