<svg width="32" height="26" viewBox="0 0 32 26" fill="none" xmlns="http://www.w3.org/2000/svg">
<path d="M26.1167 11.6278C26.1167 11.6278 26.5389 13.6944 26.6333 14.1278H24.7778C24.9611 13.6333 25.6667 11.7111 25.6667 11.7111C25.6556 11.7278 25.85 11.2055 25.9611 10.8833L26.1167 11.6278ZM32 3.22221V22.7778C32 24.25 30.8056 25.4444 29.3333 25.4444H2.66667C1.19444 25.4444 0 24.25 0 22.7778V3.22221C0 1.74999 1.19444 0.555542 2.66667 0.555542H29.3333C30.8056 0.555542 32 1.74999 32 3.22221ZM8.47222 17.1778L11.9833 8.55554H9.62222L7.43889 14.4444L7.2 13.25L6.42222 9.28332C6.29444 8.73332 5.9 8.57776 5.41111 8.55554H1.81667L1.77778 8.72776C2.65556 8.94999 3.43889 9.27221 4.12222 9.67776L6.11111 17.1778H8.47222ZM13.7167 17.1889L15.1167 8.55554H12.8833L11.4889 17.1889H13.7167ZM21.4889 14.3667C21.5 13.3833 20.9 12.6333 19.6167 12.0167C18.8333 11.6222 18.3556 11.3555 18.3556 10.95C18.3667 10.5833 18.7611 10.2055 19.6389 10.2055C20.3667 10.1889 20.9 10.3611 21.3 10.5333L21.5 10.6278L21.8056 8.7611C21.3667 8.58887 20.6667 8.39443 19.8056 8.39443C17.6 8.39443 16.05 9.57221 16.0389 11.25C16.0222 12.4889 17.15 13.1778 17.9944 13.5944C18.8556 14.0167 19.15 14.2944 19.15 14.6667C19.1389 15.2444 18.45 15.5111 17.8111 15.5111C16.9222 15.5111 16.4444 15.3722 15.7167 15.05L15.4222 14.9111L15.1111 16.85C15.6333 17.0889 16.6 17.3 17.6 17.3111C19.9444 17.3167 21.4722 16.1555 21.4889 14.3667ZM29.3333 17.1889L27.5333 8.55554H25.8056C25.2722 8.55554 24.8667 8.7111 24.6389 9.27221L21.3222 17.1889H23.6667C23.6667 17.1889 24.05 16.1222 24.1333 15.8944H27C27.0667 16.2 27.2667 17.1889 27.2667 17.1889H29.3333Z" fill="black"/>
</svg>
