<svg width="32" height="32" viewBox="0 0 32 32" fill="none" xmlns="http://www.w3.org/2000/svg">
<path d="M16 0.5C7.4375 0.5 0.5 7.4375 0.5 16C0.5 24.5625 7.4375 31.5 16 31.5C24.5625 31.5 31.5 24.5625 31.5 16C31.5 7.4375 24.5625 0.5 16 0.5ZM16 6.5C19.0375 6.5 21.5 8.9625 21.5 12C21.5 15.0375 19.0375 17.5 16 17.5C12.9625 17.5 10.5 15.0375 10.5 12C10.5 8.9625 12.9625 6.5 16 6.5ZM16 28C12.3313 28 9.04375 26.3375 6.84375 23.7375C8.01875 21.525 10.3188 20 13 20C13.15 20 13.3 20.025 13.4438 20.0688C14.2563 20.3313 15.1062 20.5 16 20.5C16.8937 20.5 17.75 20.3313 18.5562 20.0688C18.7 20.025 18.85 20 19 20C21.6812 20 23.9813 21.525 25.1562 23.7375C22.9562 26.3375 19.6688 28 16 28Z" fill="#1B1B1B"/>
</svg>
