<svg width="35" height="40" viewBox="0 0 35 40" fill="none" xmlns="http://www.w3.org/2000/svg">
<path d="M35 0H0V40H35V0Z" fill="white"/>
<path d="M17.7871 11.9441C18.7593 11.9441 19.9779 11.2783 20.7036 10.3906C21.3609 9.58611 21.8401 8.46261 21.8401 7.3391C21.8401 7.18653 21.8264 7.03395 21.799 6.90912C20.7173 6.95073 19.4165 7.64425 18.636 8.57357C18.0199 9.28096 17.4585 10.3906 17.4585 11.528C17.4585 11.6944 17.4859 11.8609 17.4996 11.9163C17.568 11.9302 17.6776 11.9441 17.7871 11.9441ZM14.3639 28.7273C15.6921 28.7273 16.2809 27.8257 17.9377 27.8257C19.6219 27.8257 19.9916 28.6996 21.4704 28.6996C22.9218 28.6996 23.894 27.3403 24.8114 26.0087C25.8383 24.483 26.2628 22.9849 26.2902 22.9156C26.1944 22.8879 23.4148 21.7366 23.4148 18.5048C23.4148 15.703 25.6056 14.4408 25.7288 14.3437C24.2774 12.2354 22.0729 12.1799 21.4704 12.1799C19.841 12.1799 18.5128 13.1786 17.6776 13.1786C16.7738 13.1786 15.5826 12.2354 14.1722 12.2354C11.4885 12.2354 8.76367 14.4824 8.76367 18.7267C8.76367 21.3621 9.77692 24.1501 11.023 25.9532C12.091 27.479 13.0221 28.7273 14.3639 28.7273Z" fill="black"/>
</svg>
